<?xml version="1.0" standalone="yes"?>
<svg xmlns="http://www.w3.org/2000/svg" width="600" height="600">
<path style="fill:#010101; stroke:none;" d="M0 0L0 600L600 600L600 0L0 0z"/>
<path style="fill:#bbd1d5; stroke:none;" d="M294 368C268.348 368 242.696 363.703 219 353.573C202.216 346.397 186.349 336.695 173.039 324.169C162.419 314.173 153.579 302.914 146.781 290C141.793 280.523 138.662 269.544 136.92 259C122.816 173.656 221.774 124 293 124L293 56C189.287 56 66.1783 111.83 50.1304 226C47.9536 241.487 48.3974 257.629 51.2608 273C54.9787 292.959 62.4083 310.356 72.3094 328C84.0589 348.938 102.254 366.803 121 381.489C133.896 391.593 148.364 389 164 389L251 389C261.546 389 282.247 393.039 291.682 388.397C296.271 386.139 294 372.39 294 368M309 56L309 124C334.364 124 360.491 128.263 384 138.012C400.927 145.031 416.199 154.706 430 166.718C440.61 175.953 449.076 186.811 456 199C461.293 208.318 464.74 218.553 467.112 229C470.628 244.487 468.891 260.035 464 275C443.102 338.94 371.876 369 309 369L309 389L422 389C437.235 389 458.394 392.871 473 388.86C484.518 385.698 490.981 371.292 502 368C503.297 363.181 508.579 359.591 511.911 356C518.244 349.175 523.76 341.696 528.972 334C544.533 311.026 554.012 283.718 555.911 256C556.925 241.192 555.1 226.43 551.884 212C528.089 105.23 407.977 56 309 56z"/>
<path style="fill:#6d77c1; stroke:none;" d="M127 389L129 390L129 391C112.645 396.181 97.3787 413.644 86.9753 426.576C68.7538 449.227 54.1428 474.678 38.446 499.086C31.3014 510.195 25.1988 523.502 16 533L17 535L11 542C30.1538 547.662 56.9871 543 77 543C83.0515 543 94.3736 545.169 99.6713 541.972C103.744 539.515 106.683 533.01 109.189 529.086C114.797 520.304 120.758 511.774 126.424 503.039C145.815 473.149 166.324 434.996 194 412.12C213.645 395.883 234.232 405.434 256 399L256 543L294 543L294 389L180 389C164.906 389 143.196 392.94 129 388L127 389z"/>
<path style="fill:#96a6cc; stroke:none;" d="M293 388L294 389L293 388z"/>
<path style="fill:#5259bb; stroke:none;" d="M131 389L132 390L131 389z"/>
<path style="fill:#6d77c1; stroke:none;" d="M309 389L309 543L338 543L347.821 541.397L349 531L349 506L349 435L348 400C365.88 400 385.227 398.498 401.573 407.018C419.602 416.415 431.459 436.753 442.615 453.004C458.093 475.551 474.014 497.858 488.615 521.004C493.245 528.343 499.507 535.01 503 543L591 543C590.003 535.948 584.31 530.094 580.802 524.089C571.448 508.081 560.309 493.104 550.953 477.09C546.991 470.308 542.119 458.674 535 455C534.548 449.644 530.018 445.374 527.089 441.001C519.324 429.41 510.648 418.204 499.996 409.114C492.213 402.473 482.879 393.266 472.961 390.055C455.875 384.524 430.936 389 413 389L309 389z"/>
<path style="fill:#96a6cc; stroke:none;" d="M471 389L472 390L471 389z"/>
<path style="fill:#010101; stroke:none;" d="M473 389L474 390L473 389z"/>
<path style="fill:#5259bb; stroke:none;" d="M474 389L475 390L474 389z"/>
<path style="fill:#6d77c1; stroke:none;" d="M475.667 389.333L476.333 389.667L475.667 389.333M49 480L50 481L49 480z"/>
</svg>
