<?xml version="1.0" encoding="UTF-8"?>
<svg width="512" height="512" version="1.2" baseProfile="tiny-ps" viewBox="0 0 512 512" xmlns="http://www.w3.org/2000/svg">
<title>arrea-systems</title>
 <g transform="translate(0 215)">
  <g transform="translate(.98274 -.30238)" stroke-width=".38209">
   <path d="m1.1339 42.512v-256h512v512h-512z" fill="#fefefe"/>
   <path d="m265.41 249.73c-0.31617-0.31618-0.24092-126.1 0.0828-138.44l0.23558-8.9791 6.6948-0.25678c32.024-1.2283 61.606-10.818 85.481-27.711 19.335-13.68 33.769-32.924 39.846-53.125 4.8272-16.045 4.5994-33.85-0.63534-49.66-11.624-35.105-45.369-62.823-90.121-74.025-10.457-2.6173-22.886-4.3201-34.579-4.7375l-7.0687-0.25229-0.196-56.86 8.886 0.23425c10.152 0.26764 15.765 0.69739 26.153 2.0024 60.364 7.5839 114.03 36.138 145.38 77.357 36.111 47.478 38.556 105.63 6.5201 155.1-11.094 17.134-28.937 35.184-46.825 47.371-1.7975 1.2246-1.8249 1.2723-1.154 2.0136 0.37793 0.41761 1.2064 1.0076 1.8412 1.3111 3.5425 1.6939 13.675 9.0297 19.839 14.363 5.4094 4.6807 13.865 13.899 17.656 19.248 0.60702 0.85654 2.0641 2.8338 3.2378 4.394 1.1738 1.5602 2.7961 3.7824 3.6051 4.9382 2.2687 3.2413 6.062 8.7839 6.4877 9.4794 0.21015 0.34342 1.5144 2.3486 2.8983 4.456 2.1627 3.2934 3.3335 5.1193 6.845 10.675 0.31522 0.49878 1.1416 1.828 1.8365 2.954 0.69487 1.1259 1.7624 2.8208 2.3724 3.7665 0.60993 0.94567 1.8059 2.837 2.6576 4.203s2.5714 4.031 3.8213 5.9224c1.2499 1.8914 2.7959 4.2985 3.4356 5.3493 0.6397 1.0507 1.8444 2.9421 2.6771 4.203 0.83269 1.2609 1.6373 2.5504 1.7879 2.8657 0.15065 0.31523 1.2147 2.0346 2.3646 3.8209 5.5808 8.6694 6.8471 10.649 9.6141 15.029 1.1558 1.8296 3.2621 5.1146 4.6806 7.3002 2.6645 4.1053 2.8981 4.7096 2.1206 5.487-0.61807 0.61807-71.033 0.66824-72.185 0.0514-0.41835-0.22387-0.87988-0.6967-1.0256-1.0508-0.14576-0.354-1.2966-2.16-2.5576-4.0134-1.2609-1.8533-2.4678-3.6587-2.6821-4.0119-0.21423-0.35324-1.4178-2.1622-2.6746-4.0199-1.2568-1.8577-2.543-3.7687-2.8582-4.2465-1.8692-2.8336-23.78-35.372-30.63-45.486-5.2642-7.773-7.859-11.522-10.526-15.206-1.0953-1.5135-2.6428-3.6602-3.4388-4.7705-0.796-1.1103-2.3134-3.1736-3.3719-4.5851s-2.2143-2.9962-2.5683-3.5216c-0.35401-0.52537-1.8526-2.5027-3.3302-4.394-1.4776-1.8913-3.3833-4.3471-4.235-5.4572-2.7867-3.6322-8.8174-9.6121-12.191-12.088-6.094-4.4729-12.16-6.9725-19.118-7.8774-1.5761-0.205-4.843-0.6385-7.2597-0.96334-3.3058-0.44433-7.0438-0.56205-15.093-0.4753l-10.699 0.11531-0.0967 60.715c-0.0702 44.102-0.21372 60.855-0.5244 61.23-0.34587 0.41675-3.3667 0.51533-15.792 0.51533-8.4503 0-15.479-0.11463-15.619-0.25474zm-251.59-0.58391c-0.25324-0.25325-0.46044-0.62346-0.46044-0.82264 0-0.19922 1.8484-3.2573 4.1075-6.7958 2.2591-3.5384 4.2857-6.7606 4.5034-7.1604 0.21779-0.3997 0.86257-1.4338 1.4328-2.298 0.57027-0.86413 1.4444-2.2159 1.9426-3.004 2.0675-3.2707 3.7094-5.8442 6.0333-9.4567 3.9738-6.1772 8.8875-13.901 9.2998-14.619 0.21015-0.36566 0.9409-1.482 1.6239-2.4807 0.68298-0.9987 1.2418-1.9084 1.2418-2.0214 0-0.1131 0.32644-0.67153 0.72542-1.2409s1.5371-2.3248 2.5291-3.9009c0.99201-1.5761 2.1887-3.4675 2.6593-4.203 0.47062-0.73553 1.6261-2.5409 2.5678-4.0119 0.94166-1.471 2.6416-4.1361 3.7776-5.9224 8.0825-12.709 18.577-27.444 24.356-34.197 4.076-4.7631 11.63-11.968 17.068-16.28 4.0111-3.1802 14.325-10.257 14.996-10.289 0.61407-0.0294 2.4742-1.8322 2.2554-2.186-0.12713-0.20569-2.0834-1.7144-4.3472-3.3528-35.047-25.363-57.934-59.864-64.094-96.619-1.4661-8.7469-1.8564-14.711-1.6133-24.654 0.23956-9.8002 0.9559-15.86 2.903-24.56 8.2298-36.769 32.654-70.101 69.387-94.695 35.241-23.595 80.945-37.665 126.19-38.847l8.5015-0.22215v28.289c0 25.443-0.0608 28.312-0.60438 28.521-0.33241 0.12756-2.2667 0.2337-4.2985 0.23587-17.062 0.0182-40.316 4.9316-57.76 12.204-17.378 7.2452-32.037 17.058-44.346 29.684-7.8616 8.0645-13.386 15.846-18.137 25.546-4.2759 8.7304-6.6665 16.368-8.0726 25.791-0.78412 5.2545-0.87774 16.902-0.17506 21.779 2.9328 20.355 12.044 37.991 27.739 53.692 19.457 19.466 46.664 32.878 77.38 38.148 7.2098 1.237 11.91 1.7483 21.015 2.2862l7.4508 0.44023 0.28158 11.272c0.15487 6.1994 0.24084 39.384 0.19104 73.743l-0.0905 62.472-15.329 0.0998c-12.55 0.0817-15.407 6e-3 -15.76-0.4198-0.31539-0.38002-0.45724-16.832-0.52795-61.234l-0.0967-60.715-10.698-0.10445c-12.044-0.11759-18.753 0.45855-27.026 2.3212-3.0332 0.68285-4.0206 1.0691-8.2492 3.2269-5.8964 3.0089-11.248 7.4706-16.515 13.768-3.5514 4.2462-15.368 19.902-18.52 24.538-0.64309 0.94567-2.9864 4.2985-5.2073 7.4508-2.2209 3.1522-6.8634 9.9439-10.316 15.093-14.375 21.434-32.132 47.851-34.799 51.773l-2.8587 4.203-35.894 0.0975c-27.601 0.0749-36.001-9e-3 -36.355-0.36298z" fill="#cfd5e8"/>
   <path d="m265.6 176.47c0.0712-40.226 0.25617-73.265 0.41108-73.42 0.15492-0.15488 3.5078-0.4169 7.4508-0.58227 21.503-0.90185 41.213-5.4009 60.011-13.698 28.936-12.772 51.741-34.612 61.752-59.137 4.5364-11.114 6.3235-20.215 6.3235-32.203 0-9.6691-1.0885-16.906-3.8217-25.409-3.3327-10.368-9.0156-20.853-16.257-29.994-3.6077-4.5541-14.101-14.88-18.881-18.58-20.874-16.158-46.222-26.29-74.868-29.925-3.4556-0.43851-8.6138-0.88671-11.463-0.996-2.8488-0.10928-6.4263-0.29299-7.9499-0.40824l-2.7701-0.20954v-55.72l3.3433 5e-3c18.756 0.0297 43.361 3.2073 62.185 8.031 46.615 11.945 85.851 35.935 111.93 68.44 16.892 21.051 27.155 44.966 30.228 70.437 0.77893 6.4552 0.89321 20.171 0.22131 26.555-4.2227 40.125-25.819 75.728-62.855 103.62-3.3325 2.5097-6.4704 4.7194-6.9731 4.9105-0.50271 0.19112-0.914 0.49153-0.914 0.66756 0 0.42973 1.948 2.208 2.7092 2.4731 1.2773 0.4449 11.048 7.248 15.249 10.617 8.7249 6.998 14.109 12.473 21.176 21.534 5.3373 6.8436 14.717 20.41 21.236 30.716 1.366 2.1593 2.7415 4.3311 3.0567 4.8262s1.1369 1.8214 1.826 2.9473c0.68906 1.1259 3.4816 5.4859 6.2056 9.6889 2.724 4.203 5.2366 8.1532 5.5835 8.7784 0.52664 0.94911 5.5186 8.8226 10.665 16.822 10.092 15.685 13.222 20.818 13.095 21.476-0.12567 0.65269-1.8296 0.69028-35.49 0.78309-27.909 0.077-35.484-4e-3 -35.957-0.38209-0.32947-0.26375-5.8997-8.3888-12.378-18.056-32.122-47.93-37.198-55.375-45.539-66.793-1.104-1.5111-2.695-3.6932-3.5357-4.849-0.8407-1.1558-2.7367-3.649-4.2132-5.5403-1.4766-1.8913-3.3788-4.3497-4.2272-5.4631-2.4838-3.2596-9.4684-10.149-12.572-12.4-6.4494-4.6783-11.113-6.4888-20.442-7.9366-8.2382-1.2785-30.295-1.9828-31.809-1.0158-0.37879 0.242-0.47761 12.797-0.47761 60.678 0 40.886-0.12767 60.611-0.39553 61.112-0.38095 0.71183-0.95997 0.73908-15.7 0.73908h-15.304zm-251.22 72.504c-0.54637-0.54639-0.15218-1.3849 2.9666-6.3104 1.7728-2.7998 4.3636-6.896 5.7574-9.1025 1.3938-2.2066 3.769-5.9392 5.2782-8.2946 1.5093-2.3555 4.2916-6.7234 6.1829-9.7065 1.8913-2.9831 4.2985-6.7704 5.3493-8.4161 3.306-5.178 7.9564-12.487 9.7634-15.345 3.7475-5.9272 12.356-19.281 13.596-21.092 17.688-25.818 26.114-34.645 45.119-47.269 2.1479-1.4266 4.0485-2.5939 4.2236-2.5939s0.88228-0.58197 1.5717-1.2933l1.2535-1.2933-1.274-0.92602c-16.769-12.188-27.555-22.091-37.678-34.591-27.889-34.438-37.937-75.898-28.15-116.15 9.3585-38.495 37.426-73.633 78.129-97.808 31.876-18.933 69.205-29.968 110.22-32.584 3.3588-0.21422 7.9582-0.38949 10.221-0.38949h4.114v55.693l-4.8716 0.25112c-36.225 1.8673-66.746 12.635-91.224 32.184-5.3684 4.2875-13.721 12.597-17.644 17.553-25.839 32.646-27.136 72.882-3.4274 106.34 4.6949 6.6249 12.809 15.326 19.352 20.752 24.227 20.092 56.528 31.853 91.893 33.459l6.1134 0.27758 0.23558 8.9791c0.12957 4.9385 0.25852 37.996 0.28657 73.461l0.051 64.482-30.342-0.1998-0.26799-0.95522c-0.14739-0.52537-0.27984-27.937-0.29434-60.915-0.0187-42.501-0.14685-60.079-0.4402-60.37-0.53346-0.52923-19.848-0.43207-25.969 0.13064-8.9082 0.81892-13.975 2.043-19.41 4.6888-6.654 3.2394-12.145 7.7532-17.984 14.784-3.3527 4.0365-11.562 14.863-15.97 21.061-1.2704 1.7863-3.5939 5.0531-5.1633 7.2597-4.3536 6.1212-7.424 10.657-34.141 50.436-5.8576 8.7212-11.88 17.662-13.383 19.869l-2.7325 4.0119-35.524 0.0975c-19.538 0.0536-35.64-0.018-35.781-0.15917z" fill="#c5d6da"/>
   <path d="m265.72 249.13c-0.24732-0.64833 0.12096-128.41 0.39807-138.1l0.22056-7.7117 1.9908-0.20055c1.0949-0.11031 4.4839-0.28969 7.5311-0.39861 11.018-0.39387 25.831-2.8329 37.179-6.1217 49.502-14.347 83.585-48.849 88.519-89.607 0.21557-1.7808 0.39191-6.0838 0.39191-9.5623 0-3.4785-0.17634-7.7815-0.39191-9.5623-3.3148-27.386-19.796-52.333-46.414-70.255-22.966-15.464-50.884-24.262-81.368-25.643-4.2124-0.19088-7.7019-0.35395-7.7545-0.36239-0.0525-8e-3 -0.0955-12.395-0.0955-27.526v-27.51l2.9612 5e-3c8.801 0.0154 26.89 1.4403 36.452 2.8713 48.541 7.2642 92.47 27.905 123.12 57.851 13.687 13.372 23.441 26.521 31.198 42.054 7.1249 14.268 11.381 28.413 13.221 43.94 0.78134 6.5922 0.88129 20.693 0.18963 26.746-2.6008 22.76-9.9818 42.577-23.125 62.09-9.9188 14.725-25.322 30.459-41.308 42.194-2.1015 1.5427-4.3797 3.0418-5.0627 3.3314-0.68299 0.28958-1.2418 0.66241-1.2418 0.82851 0 0.3826 2.4205 2.7444 2.8126 2.7444 0.57879 0 10.068 6.4259 13.808 9.3512 12.656 9.8968 20.376 18.507 32.887 36.678 3.1871 4.629 11.064 16.654 14.461 22.076 2.5537 4.0762 4.0988 6.518 5.3805 8.5032 1.926 2.9832 3.5316 5.5072 8.9931 14.137 2.7928 4.4131 5.8514 9.2275 6.7968 10.698 0.94544 1.471 2.3162 3.6203 3.0462 4.7761s1.8829 2.9612 2.5619 4.0119c1.09 1.6866 4.6877 7.3738 5.7302 9.0582 0.21015 0.33953 1.384 2.1767 2.6086 4.0826s2.1679 3.7695 2.0963 4.1414c-0.12326 0.64007-2.0093 0.6813-35.403 0.77361-19.4 0.0537-35.513-0.0371-35.807-0.20155-0.29395-0.16449-3.2961-4.4209-6.6714-9.4587-28.656-42.771-37.706-56.185-42.579-63.119-1.1487-1.6344-2.7401-3.8995-3.5364-5.0335-0.7963-1.134-2.3075-3.2351-3.3583-4.669s-2.8561-3.9111-4.0119-5.5047c-1.1558-1.5936-3.5221-4.7367-5.2584-6.9847s-3.8727-5.0329-4.7476-6.1887c-2.8396-3.7514-10.626-11.184-14.066-13.426-6.3532-4.1414-9.9509-5.4532-18.722-6.8264-7.7673-1.216-31.347-2.0261-32.26-1.1083-0.12454 0.12515-0.22331 27.321-0.2195 60.435 4e-3 38.462-0.12848 60.563-0.36799 61.193l-0.37491 0.9861h-15.114c-11.739 0-15.155-0.10664-15.296-0.47761zm-251.11-0.15754c-0.26269-0.10599-0.47761-0.4125-0.47761-0.68111 0-0.42771 3.5953-6.3446 7.4186-12.209 0.69898-1.0721 3.9977-6.2478 7.3305-11.502 3.3328-5.2537 6.5789-10.361 7.2135-11.35 0.63459-0.98865 2.1723-3.3958 3.4171-5.3492 1.2448-1.9534 2.8135-4.4114 3.486-5.4622 0.67249-1.0508 3.4999-5.5212 6.2831-9.9343 5.181-8.2151 5.842-9.2419 11.684-18.149 17.184-26.2 27.803-37.745 45.524-49.495 8.1636-5.4132 8.8972-5.9616 8.8942-6.6496-1e-3 -0.32745-0.64158-1.0252-1.4225-1.5506-5.9733-4.0184-15.203-11.471-21.147-17.075-19.886-18.749-33.549-39.433-41.221-62.399-7.0626-21.144-8.4053-44.378-3.8244-66.177 7.8866-37.529 32.33-71.214 69.719-96.079 35.425-23.559 79.154-36.966 125.87-38.59l7.2862-0.25337v55.05l-4.8716 0.25999c-21.024 1.122-37.853 4.656-55.69 11.694-5.1869 2.0468-17.531 8.2522-22.173 11.147-13.847 8.6334-26.725 20.611-35.035 32.585-18.829 27.13-21.436 59.287-7.139 88.058 5.1266 10.317 10.785 18.107 19.444 26.769 19.874 19.882 47.424 33.379 78.718 38.563 7.8037 1.2928 18.148 2.3056 23.579 2.3086l3.5193 2e-3 0.22062 7.9284c0.12135 4.3606 0.25707 37.33 0.30161 73.266l0.081 65.337-14.878 0.10007c-8.1828 0.0551-15.023-0.0446-15.199-0.2215-0.17687-0.1769-0.31768-27.56-0.31291-60.852 5e-3 -37.797-0.12831-60.746-0.35607-61.104-0.2836-0.4456-1.4095-0.60273-5.06-0.70615-5.6105-0.15894-23.856 0.60178-26.062 1.0866-0.85716 0.18839-3.435 0.72631-5.7284 1.1954-2.2935 0.46905-5.0445 1.2171-6.1134 1.6623-7.2838 3.0338-13.693 7.8883-19.826 15.017-7.2758 8.4568-21.098 27.512-34.845 48.037-9.7181 14.51-27.791 41.416-32.593 48.525-2.4135 3.5725-4.6543 6.7104-4.9797 6.9731-0.46423 0.37479-8.1219 0.47111-35.575 0.44746-19.241-0.0164-35.199-0.11692-35.461-0.22291z" fill="#baced3"/>
   <path d="m265.72 249.13c-0.0999-0.26269-0.13748-29.707-0.0835-65.433l0.0981-64.955 136.02-0.1932 1.7191 1.3511c0.94548 0.74312 4.1867 2.9782 7.2026 4.9667 8.2445 5.4361 14.96 10.846 20.963 16.89 6.1824 6.2232 16.989 20.434 25.326 33.303 1.8714 2.8888 11.337 17.704 14.064 22.011 0.93115 1.471 2.0819 3.2764 2.5573 4.0119 2.3642 3.658 5.3844 8.3973 8.7658 13.755 2.0556 3.2573 4.1277 6.5242 4.6045 7.2597 0.47685 0.73552 1.6816 2.6269 2.6774 4.203 0.99572 1.5761 2.1993 3.4675 2.6746 4.203 7.2173 11.168 11.272 17.705 11.272 18.172 0 0.25764-0.27198 0.57283-0.60439 0.70037-1.1084 0.4253-69.69 0.26421-70.493-0.1656-0.40849-0.21863-2.9481-3.7004-5.6436-7.7373-10.953-16.404-30.816-45.956-38.062-56.629-3.3145-4.8821-9.3101-13.436-12.051-17.194-0.76647-1.0508-2.4985-3.4319-3.849-5.2915-9.0118-12.409-16.014-20.732-20.433-24.287-10.874-8.7476-18.706-10.858-42.148-11.357-9.0601-0.1929-12.322-0.14327-12.958 0.19716l-0.85008 0.45495v60.889c0 55.17-0.0568 60.911-0.60439 61.121-0.33241 0.12758-7.2154 0.23193-15.296 0.23193-11.401 0-14.732-0.10695-14.873-0.47761zm-250.95-0.38209c-0.77796-0.57115-0.85942-0.40433 3.7522-7.6849 1.6812-2.6542 3.6585-5.7775 4.394-6.9407 4.0554-6.4134 18.061-28.406 20.069-31.512 2.1919-3.3918 5.7451-9.0175 8.397-13.295 2.2466-3.6237 7.3136-11.429 10.716-16.507 10.712-15.987 17.136-24.251 24.806-31.91 6.4672-6.4579 11.063-10.185 19.499-15.813 3.7827-2.5236 7.5008-5.1127 8.2626-5.7535l1.3849-1.1652 135.55 0.1932v130.67l-14.666 0.10011c-10.508 0.0717-14.814-0.0229-15.188-0.33333-0.43765-0.36322-0.52229-10.269-0.52229-61.126v-60.692l-0.84692-0.45326c-1.0128-0.54202-24.039-0.15609-28.383 0.47571-5.8705 0.85386-6.9946 1.0549-9.9648 1.7819-1.698 0.41561-3.4174 0.91697-3.8209 1.1141-12.411 6.0633-16.855 10.149-29.836 27.431-4.2116 5.6066-5.9755 8.0286-9.7395 13.373-9.1304 12.964-10.018 14.269-31.965 46.997-15.611 23.279-20.005 29.748-20.827 30.663l-0.77278 0.8597h-34.822c-27.256 0-34.963-0.10378-35.472-0.47761z" fill="#a8b0d8"/>
   <path d="m266.02 184.18 0.0966-65.055 135.75-0.1932 1.2548 1.1722c0.69013 0.64468 1.6975 1.4211 2.2386 1.7253 3.7891 2.1306 12.414 8.2792 17.414 12.414 8.6544 7.1574 16.018 15.393 24.745 27.676 4.4393 6.2481 15.126 22.372 19.932 30.074 1.6781 2.6891 4.4476 7.0604 5.7596 9.0905 0.47532 0.73553 1.6814 2.6269 2.6802 4.203s2.3651 3.7254 3.0363 4.7761c0.67121 1.0507 4.4739 7.0233 8.4504 13.272 3.9765 6.2491 7.8707 12.353 8.6537 13.564 0.78302 1.2113 1.7733 2.804 2.2006 3.5396 0.42733 0.73552 1.7232 2.7924 2.8796 4.5709 1.1564 1.7785 2.0432 3.4119 1.9706 3.6298-0.20965 0.62895-69.842 0.73903-70.642 0.11164-0.33639-0.26379-3.7745-5.208-7.6402-10.987-6.6456-9.935-25.604-38.145-33.539-49.906-9.1775-13.602-20.751-29.628-27.84-38.548-10.897-13.712-20.019-19.576-33.876-21.778-6.9274-1.1005-31.315-1.8207-32.669-0.96477-0.50424 0.31874-0.5961 7.7013-0.76418 61.415l-0.19105 61.053-29.996 0.2zm-250.87 64.411c-0.54868-0.54868-0.15422-1.3881 2.788-5.9333 1.6746-2.5869 3.511-5.4772 4.081-6.4229 0.8868-1.4714 2.6087-4.1719 6.8216-10.698 1.075-1.6654 3.7788-5.9243 5.7586-9.0707 0.82507-1.3112 2.7358-4.3202 4.246-6.6866 1.5102-2.3664 3.7323-5.85 4.9379-7.7413 1.2056-1.8914 2.7415-4.2985 3.4131-5.3493 0.67156-1.0507 2.735-4.3176 4.5855-7.2597 9.9591-15.834 16.533-25.483 23.778-34.902 8.0101-10.413 13.074-15.638 22.056-22.759 3.8718-3.0696 14.73-10.542 15.319-10.542 0.1397 0 0.92064-0.60227 1.7354-1.3384l1.4814-1.3384 135.06 0.1932 0.0966 65.055 0.0966 65.055-29.614-0.20003-0.0967-61.026-0.0967-61.026-0.84659-0.45308c-0.96543-0.51669-24.201-0.17134-28.572 0.42466-9.144 1.2469-12.442 2.1382-17.831 4.8188-5.698 2.8344-11.314 7.3581-16.335 13.158-3.0709 3.5473-13.174 16.797-18.489 24.246-5.3792 7.5399-9.2814 13.174-14.424 20.824-3.3196 4.9385-9.3899 13.965-13.49 20.06s-10.398 15.465-13.997 20.824c-3.5989 5.3588-7.8317 11.635-9.4062 13.946l-2.8627 4.203-34.971 0.0975c-19.234 0.0537-35.086-0.018-35.227-0.15921z" fill="#8b94cc"/>
   <path d="m266.1 248.75c-0.10085-0.26517-0.13922-29.454-0.0853-64.864l0.0981-64.382 135.68-0.1932 1.2972 1.3384c0.71348 0.7361 1.4574 1.3384 1.6533 1.3384 0.55219 0 8.7418 5.4723 12.827 8.5712 13.742 10.424 22.438 20.409 37.623 43.202 5.6284 8.4484 8.589 12.977 9.2413 14.137 0.38637 0.68689 12.677 20.11 18.085 28.581 4.8154 7.5419 5.7333 8.9779 7.3756 11.538 0.94353 1.471 3.3958 5.3397 5.4496 8.597 2.0537 3.2573 4.407 6.9223 5.2295 8.1444 0.82257 1.2221 1.5345 2.5976 1.5821 3.0567l0.0866 0.83467-68.92 0.1952-0.93998-0.86173c-0.51697-0.47394-6.4091-9.0289-13.094-19.011-37.273-55.66-40.354-60.092-55.79-80.239-3.0456-3.9753-11.278-12.052-14.495-14.22-5.0288-3.39-13.243-6.7948-16.392-6.7948-0.50916 0-2.02-0.25378-3.3574-0.56394-2.7765-0.64391-16.075-1.3375-25.748-1.3429-5.624-3e-3 -6.618 0.0852-7.0687 0.6282-0.43785 0.52755-0.55593 10.695-0.71544 61.612l-0.19105 60.98-14.625 0.10007c-11.496 0.0787-14.664-4e-3 -14.809-0.38209zm-43.655-0.36294c-0.35882-0.35882-0.46307-14.118-0.46307-61.112 0-56.961-0.0401-60.689-0.66038-61.309-0.61044-0.61045-1.5855-0.63893-12.896-0.37677-18.666 0.43269-23.261 1.0325-31.531 4.1156-2.1224 0.79133-6.8629 3.5093-9.3612 5.3674-6.6643 4.9564-11.31 10.371-25.984 30.282-1.0841 1.471-2.8658 3.9642-3.9593 5.5403-1.0935 1.5761-2.8341 4.0692-3.8681 5.5403-4.8052 6.8367-18.149 26.525-24.075 35.52-1.8629 2.8279-13.745 20.515-20.802 30.964-1.4193 2.1015-2.9375 4.2078-3.3738 4.6806l-0.79329 0.8597h-34.49c-23.196 0-34.569-0.12857-34.733-0.3926-0.13345-0.21592 0.07133-0.90876 0.45506-1.5396 0.60352-0.99221 11.071-17.499 16.098-25.387 0.93758-1.471 2.3069-3.6203 3.0429-4.7761 0.73599-1.1558 1.9489-3.0472 2.6954-4.203 0.7465-1.1558 1.7343-2.7033 2.1951-3.4388 1.1912-1.9014 3.8574-6.1039 6.4954-10.238 3.9746-6.229 4.5142-7.0814 6.8246-10.78 2.8747-4.6014 13.344-20.411 15.685-23.687 0.97644-1.366 2.0597-2.9134 2.4072-3.4388 1.4326-2.1658 8.2567-10.794 11.68-14.767 5.0488-5.8601 13.879-13.562 21.544-18.791 4.3552-2.9711 7.4411-4.9785 8.1253-5.2857 0.31523-0.14152 1.2189-0.83091 2.0082-1.532l1.4351-1.2747 135.06 0.1932v129.53l-14.152 0.10011c-10.688 0.0756-14.265-0.0134-14.615-0.36298z" fill="#7a84c6"/>
   <path d="m266.3 184.27v-64.573h135.52l1.217 1.3373c0.6693 0.73553 1.3697 1.3373 1.5564 1.3373 0.18669 0 1.2572 0.59436 2.3788 1.3208 3.0561 1.9794 7.9727 5.3139 8.4748 5.7478 0.24316 0.21015 1.4738 1.1466 2.7346 2.0809 5.59 4.1423 12.393 10.378 16.048 14.709 0.8406 0.99623 2.3598 2.7842 3.3758 3.9733 5.9108 6.9169 16.689 22.42 27.669 39.798 0.73025 1.1558 1.6524 2.5674 2.0491 3.1368 0.39676 0.56939 0.72139 1.13 0.72139 1.2457 0 0.11573 0.60179 1.0666 1.3373 2.113s1.3373 2.0128 1.3373 2.1475c0 0.13468 0.6018 1.0825 1.3373 2.1063 0.73552 1.0238 1.3373 1.954 1.3373 2.0671s0.32646 0.67152 0.72544 1.2409c0.39897 0.56939 1.4854 2.2389 2.4143 3.7099 3.8063 6.0278 9.6656 15.171 11.827 18.455 0.59465 0.90368 1.0812 1.7429 1.0812 1.8648s0.60179 1.0594 1.3373 2.0832c0.73552 1.0238 1.3373 1.9694 1.3373 2.1015 0 0.13201 0.60179 1.0777 1.3373 2.1015 0.73553 1.0238 1.3373 1.954 1.3373 2.0671s0.32462 0.67152 0.72138 1.2409c0.39673 0.56939 1.3696 2.0669 2.1619 3.3278 0.79227 1.2609 2.0151 3.1537 2.7174 4.2063 0.70231 1.0525 1.2769 2.1272 1.2769 2.3881 0 0.74255-67.92 0.68788-68.978-0.0556-0.70003-0.49214-2.1113-2.4808-6.9452-9.7866-1.0428-1.5761-2.6555-3.9639-3.5836-5.3062-0.92817-1.3423-2.6332-3.8625-3.7891-5.6004-3.6289-5.4565-5.7986-8.7017-7.2212-10.801-0.75669-1.1165-1.8056-2.6958-2.331-3.5095-0.52538-0.81365-3.0185-4.512-5.5403-8.2186-2.5218-3.7066-4.757-7.0184-4.9672-7.3595-0.21014-0.3412-1.4997-2.2623-2.8657-4.2692s-3.6537-5.3689-5.0839-7.4713c-3.9129-5.7519-5.0443-7.3911-7.1215-10.318-1.044-1.471-2.6858-3.7922-3.6484-5.1582s-2.5101-3.5152-3.4387-4.7761c-0.92866-1.2609-2.1685-2.9803-2.7551-3.8209-1.7614-2.5239-5.7206-7.6684-10.733-13.946-4.2625-5.3386-9.4058-10.305-13.804-13.328-1.8326-1.2597-9.2097-5.0123-9.8535-5.0123-0.28165 0-1.4905-0.34388-2.6863-0.76418-1.1958-0.4203-2.782-0.76604-3.5248-0.76831-0.74281-2e-3 -2.2103-0.26671-3.261-0.58762-2.1364-0.65249-14.991-1.2937-26.247-1.3093-6.5581-9e-3 -6.7782 0.0161-7.3552 0.83983-0.5323 0.75996-0.5948 7.2444-0.5948 61.707v60.858h-29.039zm-43.563 63.713c-3e-3 -0.26269-0.0455-27.787-0.0955-61.165-0.0901-60.184-0.0972-60.692-0.85508-61.272-0.66739-0.51033-2.4579-0.55185-14.137-0.32785-16.215 0.31098-18.832 0.58297-27.67 2.8758-1.2941 0.33573-1.6962 0.50865-5.7632 2.4782-9.5253 4.613-17.539 12.893-31.58 32.627-2.8497 4.0053-4.734 6.6198-7.0169 9.7361-0.94895 1.2954-2.1898 3.043-2.7574 3.8836-0.56764 0.84059-2.3296 3.4197-3.9156 5.7313-3.2939 4.8012-5.7728 8.4869-7.1955 10.699-0.54076 0.8406-2.3347 3.5057-3.9865 5.9224-1.6518 2.4167-3.9213 5.7696-5.0432 7.4507-1.1219 1.6812-2.388 3.5612-2.8134 4.1779-0.42545 0.61666-1.684 2.508-2.7967 4.203s-2.5886 3.8941-3.2798 4.8869c-2.0653 2.9667-3.633 5.2832-5.7604 8.5114-1.1079 1.6812-2.3666 3.5725-2.797 4.203s-1.7024 2.5218-2.8264 4.203c-5.3502 8.002-6.7224 9.9688-7.2553 10.4-0.44267 0.35794-8.4965 0.46825-34.868 0.47761-18.909 6e-3 -34.293-0.13534-34.293-0.31664 0-0.1808 0.42985-0.96218 0.95522-1.7364 0.52537-0.77415 0.95522-1.4855 0.95522-1.5808 0-0.0952 0.55881-0.9903 1.2418-1.989 0.68298-0.99871 1.451-2.1597 1.7068-2.58 1.4901-2.4487 2.9884-4.849 4.2334-6.7817 0.77824-1.2081 3.5642-5.5498 6.1911-9.6482 2.6269-4.0984 5.4129-8.44 6.1911-9.6481 1.398-2.1703 3.4686-5.4891 4.4289-7.0988 0.27204-0.45603 1.1317-1.8154 1.9104-3.0207 5.0212-7.7723 11.056-17.281 11.541-18.186 0.31522-0.58746 1.048-1.7449 1.6285-2.5721 0.58042-0.82722 2.3322-3.4814 3.8928-5.8981 17.477-27.065 29.629-40.199 48.091-51.979 2.5612-1.6342 5.2405-3.503 5.9541-4.1529l1.2974-1.1817h134.77v129.15h-14.137c-11.053 0-14.138-0.1042-14.142-0.47761z" fill="#6b76c0"/>
  </g>
 </g>
</svg>
